<svg xmlns="http://www.w3.org/2000/svg" viewBox="0 0 432 260" role="img" aria-label="United States flag">
  <rect width="432" height="260" fill="#fff"/>
  <rect width="432" height="20" y="0" fill="#b22234"/>
  <rect width="432" height="20" y="40" fill="#b22234"/>
  <rect width="432" height="20" y="80" fill="#b22234"/>
  <rect width="432" height="20" y="120" fill="#b22234"/>
  <rect width="432" height="20" y="160" fill="#b22234"/>
  <rect width="432" height="20" y="200" fill="#b22234"/>
  <rect width="432" height="20" y="240" fill="#b22234"/>
  <rect width="173" height="140" fill="#3c3b6e"/>
  <g fill="#fff">
    <g id="star-row-6">
      <circle cx="14" cy="14" r="4.2"/>
      <circle cx="43" cy="14" r="4.2"/>
      <circle cx="72" cy="14" r="4.2"/>
      <circle cx="101" cy="14" r="4.2"/>
      <circle cx="130" cy="14" r="4.2"/>
      <circle cx="159" cy="14" r="4.2"/>
    </g>
    <g id="star-row-5">
      <circle cx="28.5" cy="28" r="4.2"/>
      <circle cx="57.5" cy="28" r="4.2"/>
      <circle cx="86.5" cy="28" r="4.2"/>
      <circle cx="115.5" cy="28" r="4.2"/>
      <circle cx="144.5" cy="28" r="4.2"/>
    </g>
    <use href="#star-row-6" y="28"/>
    <use href="#star-row-5" y="28"/>
    <use href="#star-row-6" y="56"/>
    <use href="#star-row-5" y="56"/>
    <use href="#star-row-6" y="84"/>
    <use href="#star-row-5" y="84"/>
    <use href="#star-row-6" y="112"/>
  </g>
</svg>
